<svg id="Layer_1" data-name="Layer 1" xmlns="http://www.w3.org/2000/svg" viewBox="0 0 11.27 13.65"><defs><style>.cls-1{fill:#676767;}</style></defs><title>icon assets</title><path class="cls-1" d="M8.23,2.74H0.3A0.3,0.3,0,0,0,0,3V13.47a0.16,0.16,0,0,0,.26.14L4,11.35a0.54,0.54,0,0,1,.52,0l3.74,2.26a0.16,0.16,0,0,0,.26-0.14V3A0.3,0.3,0,0,0,8.23,2.74Z"/><path class="cls-1" d="M11,0a0.3,0.3,0,0,1,.3.3V10.82A0.14,0.14,0,0,1,11,11l-1-.7a0.65,0.65,0,0,1-.25-0.47v-8a0.3,0.3,0,0,0-.3-0.3H3a0.3,0.3,0,0,1-.3-0.3V0.3A0.3,0.3,0,0,1,3,0H11Z"/></svg>