<?xml version="1.0" encoding="utf-8"?>
<!-- Generator: Adobe Illustrator 19.2.1, SVG Export Plug-In . SVG Version: 6.00 Build 0)  -->
<svg version="1.1" id="Layer_1" xmlns="http://www.w3.org/2000/svg" xmlns:xlink="http://www.w3.org/1999/xlink" x="0px" y="0px"
	 viewBox="0 0 12.1 12.1" style="enable-background:new 0 0 12.1 12.1;" xml:space="preserve">
<style type="text/css">
	.st0{fill:#F4C9D7;}
	.st1{fill:#DDA783;}
	.st2{fill:#D199AE;}
	.st3{fill:#99CBDF;}
	.st4{fill:#7DBAA7;}
	.st5{fill:#2FABE1;}
	.st6{fill:#67C3E8;}
	.st7{fill:#007AA4;}
	.st8{fill:#FFFFFF;}
	.st9{display:none;fill:#007AA4;}
	.st10{fill:#E7F4F5;}
	.st11{fill:#66C4EA;}
	.st12{fill:#EEEEEF;}
	.st13{fill:#676767;}
</style>
<g id="New_Symbol_8">
</g>
<g id="New_Symbol_14">
</g>
<g id="expand">
</g>
<g>
	<g>
		<path class="st13" d="M6,0C2.7,0.1,0,2.8,0,6.1c0,3.3,2.8,6,6.1,5.9c3.3,0,6-2.8,5.9-6.1C12,2.7,9.3,0,6,0z M5.9,9.7L5.9,9.7
			C5.4,9.7,5,9.3,5.1,8.8C5.1,8.3,5.4,8,5.9,8l0,0c0.5,0,0.9,0.4,0.9,0.9C6.8,9.4,6.5,9.7,5.9,9.7z M8.1,5.4C8,5.6,7.7,5.8,7.4,6.1
			L7,6.3C6.8,6.5,6.7,6.6,6.6,6.8c0,0.1-0.1,0.1-0.1,0.4l0,0.1H5.2l0-0.1c0-0.5,0-0.8,0.2-1c0.3-0.4,1-0.8,1-0.8
			C6.6,5.2,6.7,5.1,6.7,5c0.1-0.2,0.2-0.4,0.2-0.5c0-0.2-0.1-0.4-0.2-0.6C6.6,3.7,6.4,3.6,6,3.6c-0.3,0-0.6,0.1-0.7,0.3
			C5.2,4.2,5.1,4.4,5.1,4.6v0.1H3.7l0-0.1c0-0.9,0.4-1.5,0.9-1.9C5,2.5,5.5,2.4,6,2.4c0.7,0,1.3,0.2,1.7,0.5
			c0.5,0.3,0.7,0.8,0.7,1.5C8.4,4.8,8.3,5.1,8.1,5.4z"/>
	</g>
</g>
</svg>
