<?xml version="1.0" encoding="utf-8"?>
<!-- Generator: Adobe Illustrator 19.2.1, SVG Export Plug-In . SVG Version: 6.00 Build 0)  -->
<svg version="1.1" id="Layer_1" xmlns="http://www.w3.org/2000/svg" xmlns:xlink="http://www.w3.org/1999/xlink" x="0px" y="0px"
	 viewBox="0 0 8.7 12.1" style="enable-background:new 0 0 8.7 12.1;" xml:space="preserve">
<style type="text/css">
	.st0{fill:#F4C9D7;}
	.st1{fill:#DDA783;}
	.st2{fill:#D199AE;}
	.st3{fill:#99CBDF;}
	.st4{fill:#7DBAA7;}
	.st5{fill:#2FABE1;}
	.st6{fill:#67C3E8;}
	.st7{fill:#007AA4;}
	.st8{fill:#FFFFFF;}
	.st9{display:none;fill:#007AA4;}
	.st10{fill:#E7F4F5;}
	.st11{fill:#66C4EA;}
	.st12{fill:#EEEEEF;}
	.st13{fill:#676767;}
</style>
<g id="New_Symbol_8">
</g>
<g id="New_Symbol_14">
</g>
<g id="expand">
</g>
<g>
	<g id="LEarning_Path_button_5_">
		<g>
			<g>
				<path class="st13" d="M6.3,1.9c0-0.3-0.2-0.5-0.5-0.5H5.6c0-0.1,0-0.1,0-0.2C5.6,0.5,5,0,4.4,0C3.7,0,3.2,0.5,3.2,1.2
					c0,0.1,0,0.1,0,0.2H2.9c-0.3,0-0.5,0.2-0.5,0.5H1c-0.5,0-1,0.4-1,1v8.2c0,0.5,0.4,1,1,1h6.8c0.5,0,1-0.4,1-1V2.8
					c0-0.5-0.4-1-1-1H6.3z M3.9,1.2c0-0.3,0.2-0.5,0.5-0.5c0.3,0,0.5,0.2,0.5,0.5c0,0.1,0,0.1,0,0.2H3.9C3.9,1.3,3.9,1.3,3.9,1.2z
					 M7.8,10.5c0,0.3-0.2,0.5-0.5,0.5H1.5c-0.3,0-0.5-0.2-0.5-0.5V3.4c0-0.3,0.2-0.5,0.5-0.5h0.9v0.5c0,0.3,0.2,0.5,0.5,0.5h2.9
					c0.3,0,0.5-0.2,0.5-0.5V2.8h0.9c0.3,0,0.5,0.2,0.5,0.5L7.8,10.5z"/>
				<path class="st13" d="M2.2,4.9c-0.3,0-0.5,0.2-0.5,0.5c0,0.3,0.2,0.5,0.5,0.5h4.4c0.3,0,0.5-0.2,0.5-0.5c0-0.3-0.2-0.5-0.5-0.5
					H2.2z"/>
				<path class="st13" d="M6.6,6.7H2.2c-0.3,0-0.5,0.2-0.5,0.5c0,0.3,0.2,0.5,0.5,0.5h4.4c0.3,0,0.5-0.2,0.5-0.5
					C7.1,6.9,6.8,6.7,6.6,6.7z"/>
				<path class="st13" d="M6.6,8.4H2.2c-0.3,0-0.5,0.2-0.5,0.5c0,0.3,0.2,0.5,0.5,0.5h4.4c0.3,0,0.5-0.2,0.5-0.5
					C7.1,8.7,6.8,8.4,6.6,8.4z"/>
			</g>
		</g>
	</g>
</g>
</svg>
