<?xml version="1.0" encoding="utf-8"?>
<!-- Generator: Adobe Illustrator 19.2.1, SVG Export Plug-In . SVG Version: 6.00 Build 0)  -->
<svg version="1.1" id="Layer_1" xmlns="http://www.w3.org/2000/svg" xmlns:xlink="http://www.w3.org/1999/xlink" x="0px" y="0px"
	 viewBox="0 0 7.7 7.7" style="enable-background:new 0 0 7.7 7.7;" xml:space="preserve">
<style type="text/css">
	.st0{fill:#F4C9D7;}
	.st1{fill:#DDA783;}
	.st2{fill:#D199AE;}
	.st3{fill:#99CBDF;}
	.st4{fill:#7DBAA7;}
</style>
<g>
	<g>
		<path class="st0" d="M3.8,0C1.7,0,0,1.7,0,3.8s1.7,3.8,3.8,3.8c2.1,0,3.8-1.7,3.8-3.8S5.9,0,3.8,0z M3.8,1.3
			c0.5,0,0.9,0.1,1.3,0.3L1.6,5.1C1.4,4.7,1.3,4.3,1.3,3.8C1.3,2.4,2.4,1.3,3.8,1.3z M3.8,6.4C3.4,6.4,2.9,6.2,2.6,6L6,2.6
			c0.2,0.4,0.3,0.8,0.3,1.3C6.4,5.2,5.2,6.4,3.8,6.4z"/>
	</g>
	<g>
		<path class="st1" d="M3.8,0C1.7,0,0,1.7,0,3.8s1.7,3.8,3.8,3.8c2.1,0,3.8-1.7,3.8-3.8S5.9,0,3.8,0z M3.8,1.3
			c0.5,0,0.9,0.1,1.3,0.3L1.6,5.1C1.4,4.7,1.3,4.3,1.3,3.8C1.3,2.4,2.4,1.3,3.8,1.3z M3.8,6.4C3.4,6.4,2.9,6.2,2.6,6L6,2.6
			c0.2,0.4,0.3,0.8,0.3,1.3C6.4,5.2,5.2,6.4,3.8,6.4z"/>
	</g>
</g>
<g id="New_Symbol_8">
</g>
</svg>
