<svg id="Layer_1" data-name="Layer 1" xmlns="http://www.w3.org/2000/svg" viewBox="0 0 15.57 17.79"><defs><style>.cls-1{fill:#676767;}</style></defs><title>icon assets</title><path class="cls-1" d="M0,8.61A2.38,2.38,0,0,0,2.37,11l0.37,0,3,4H4.53A2.08,2.08,0,0,0,2.45,17a0.75,0.75,0,0,0,.75.75h7.91A0.75,0.75,0,0,0,11.87,17,2.08,2.08,0,0,0,9.79,15H8L4.3,10A2.37,2.37,0,0,0,4.5,7.55L8,4.07A3.87,3.87,0,0,0,9,7.71l1.09,1.09L11,7.92l0.15,0.15a2.35,2.35,0,0,0,3.32,0l0.41-.41a2.35,2.35,0,0,0,0-3.32l-0.15-.15,0.87-.87L14.48,2.23a3.87,3.87,0,0,0-3.85-1L9.91,0.53a1.81,1.81,0,0,0-2.55,0L7.3,0.58a1.81,1.81,0,0,0-.39,2l-3.8,3.8A2.37,2.37,0,0,0,0,8.61ZM11.73,7.15L13.93,5,14.07,5.1a1.27,1.27,0,0,1,0,1.79l-0.41.41a1.27,1.27,0,0,1-1.79,0ZM2.37,9.65a1,1,0,1,1,1-1A1,1,0,0,1,2.37,9.65Z"/></svg>