<?xml version="1.0" encoding="utf-8"?>
<!-- Generator: Adobe Illustrator 19.2.1, SVG Export Plug-In . SVG Version: 6.00 Build 0)  -->
<svg version="1.1" id="Layer_1" xmlns="http://www.w3.org/2000/svg" xmlns:xlink="http://www.w3.org/1999/xlink" x="0px" y="0px"
	 viewBox="0 0 11.3 11.3" style="enable-background:new 0 0 11.3 11.3;" xml:space="preserve">
<style type="text/css">
	.st0{fill:#EEEEEF;}
	.st1{fill:#676767;}
	.st2{fill:#F4C9D7;}
	.st3{fill:#DDA783;}
	.st4{fill:#D199AE;}
	.st5{fill:#99CBDF;}
	.st6{fill:#7DBAA7;}
	.st7{fill:#2FABE1;}
	.st8{fill:#67C3E8;}
	.st9{fill:#007AA4;}
	.st10{fill:#FFFFFF;}
	.st11{display:none;fill:#007AA4;}
	.st12{fill:#E7F4F5;}
	.st13{fill:#66C4EA;}
</style>
<symbol  id="expand_1_" viewBox="-5.7 -5.7 11.3 11.3">
	<path class="st0" d="M-2.8-5.7h5.7c1.6,0,2.8,1.3,2.8,2.8v5.7c0,1.6-1.3,2.8-2.8,2.8h-5.7c-1.6,0-2.8-1.3-2.8-2.8v-5.7
		C-5.7-4.4-4.4-5.7-2.8-5.7z"/>
	<polygon class="st1" points="3,0.9 0.9,0.9 0.9,3 -0.9,3 -0.9,0.9 -3,0.9 -3,-0.9 -0.9,-0.9 -0.9,-3 0.9,-3 0.9,-0.9 3,-0.9 	"/>
</symbol>
<g id="New_Symbol_8">
</g>
<g id="New_Symbol_14">
</g>
<use xlink:href="#expand_1_"  width="11.3" height="11.3" x="-5.7" y="-5.7" transform="matrix(1 0 0 -1 5.6693 5.6693)" style="overflow:visible;"/>
<g id="expand">
</g>
</svg>
