<svg id="Layer_1" data-name="Layer 1" xmlns="http://www.w3.org/2000/svg" viewBox="0 0 4.29 6.82"><defs><style>.cls-1{fill:#3babde;}</style></defs><title>icon assets</title><path class="cls-1" d="M1.28,3.69c0-1.11,1.28-1.28,1.28-1.77C2.56,1.7,2.4,1.53,2,1.53A1.42,1.42,0,0,0,.95,2L0,1A2.9,2.9,0,0,1,2.17,0c1.3,0,2.11.63,2.11,1.58C4.27,3,2.75,3.12,2.75,3.86a0.58,0.58,0,0,0,.15.39l-1.31.34A1.4,1.4,0,0,1,1.28,3.69Zm0,2.21A0.94,0.94,0,0,1,2.19,5a0.93,0.93,0,0,1,0,1.85A0.94,0.94,0,0,1,1.26,5.89Z"/></svg>