<?xml version="1.0" encoding="utf-8"?>
<!-- Generator: Adobe Illustrator 19.2.1, SVG Export Plug-In . SVG Version: 6.00 Build 0)  -->
<svg version="1.1" id="Layer_1" xmlns="http://www.w3.org/2000/svg" xmlns:xlink="http://www.w3.org/1999/xlink" x="0px" y="0px"
	 viewBox="0 0 33.5 18.2" style="enable-background:new 0 0 33.5 18.2;" xml:space="preserve">
<style type="text/css">
	.st0{fill:#F4C9D7;}
	.st1{fill:#DDA783;}
	.st2{fill:#D199AE;}
	.st3{fill:#99CBDF;}
	.st4{fill:#7DBAA7;}
	.st5{fill:#2FABE1;}
	.st6{fill:#67C3E8;}
	.st7{fill:#007AA4;}
	.st8{fill:#FFFFFF;}
	.st9{display:none;fill:#007AA4;}
	.st10{fill:#E7F4F5;}
	.st11{fill:#66C4EA;}
</style>
<g id="New_Symbol_8">
</g>
<g id="New_Symbol_14">
	<circle class="st9" cx="15.9" cy="9.2" r="22.7"/>
	<g>
		<g>
			<path class="st10" d="M6.2,16.6c-1,0-1.9-0.8-1.9-1.9v-3.2h-2c-0.4,0-0.7-0.2-0.9-0.6s-0.1-0.7,0.1-1l2.8-3.6V3.5
				c0-1,0.8-1.9,1.9-1.9h24.1c1,0,1.9,0.8,1.9,1.9v11.2c0,1-0.8,1.9-1.9,1.9H6.2z"/>
			<path class="st11" d="M30.3,2.6c0.5,0,0.9,0.4,0.9,0.9v11.2c0,0.5-0.4,0.9-0.9,0.9H6.2c-0.5,0-0.9-0.4-0.9-0.9v-3.5
				c0-0.4-0.3-0.7-0.7-0.7H2.3c0,0,2.4-3.2,2.9-3.8c0.1-0.1,0.1-0.2,0.1-0.3v-3c0-0.5,0.4-0.9,0.9-0.9H30.3 M30.3,0.6H6.2
				c-1.6,0-2.9,1.3-2.9,2.9v2.4L0.7,9.3c-0.5,0.6-0.5,1.4-0.2,2.1c0.3,0.7,1,1.1,1.8,1.1h1v2.2c0,1.6,1.3,2.9,2.9,2.9h24.1
				c1.6,0,2.9-1.3,2.9-2.9V3.5C33.2,1.9,31.9,0.6,30.3,0.6z"/>
		</g>
	</g>
</g>
</svg>
