<?xml version="1.0" encoding="utf-8"?>
<!-- Generator: Adobe Illustrator 19.2.0, SVG Export Plug-In . SVG Version: 6.00 Build 0)  -->
<svg version="1.1" id="Layer_1" xmlns="http://www.w3.org/2000/svg" xmlns:xlink="http://www.w3.org/1999/xlink" x="0px" y="0px"
	 viewBox="0 0 11.2 11.2" style="enable-background:new 0 0 11.2 11.2;" xml:space="preserve">
<style type="text/css">
	.st0{fill:#FFFFFF;}
</style>
<g>
	<path id="Skype_2_" class="st0" d="M10.7,6.4c0-0.3,0.1-0.5,0.1-0.8c0-2.9-2.3-5.2-5.2-5.2c-0.3,0-0.5,0-0.8,0.1
		C4.3,0.2,3.7,0,3.1,0C1.4,0,0,1.4,0,3.1c0,0.6,0.2,1.2,0.5,1.7c0,0.3-0.1,0.5-0.1,0.8c0,2.9,2.3,5.2,5.2,5.2c0.3,0,0.5,0,0.8-0.1
		c0.5,0.3,1,0.5,1.7,0.5c1.7,0,3.1-1.4,3.1-3.1C11.2,7.5,11,6.9,10.7,6.4z M8.1,8c-0.2,0.3-0.5,0.6-1,0.7C6.7,8.9,6.2,9,5.6,9
		C4.9,9,4.3,8.9,3.9,8.6C3.6,8.4,3.3,8.2,3.1,7.9C2.9,7.6,2.8,7.3,2.8,7.1c0-0.2,0.1-0.3,0.2-0.4c0.1-0.1,0.3-0.2,0.5-0.2
		c0.2,0,0.3,0,0.4,0.1C4,6.7,4.1,6.8,4.1,7c0.1,0.2,0.2,0.4,0.3,0.5c0.1,0.1,0.2,0.2,0.4,0.3C5,7.9,5.3,8,5.6,8c0.4,0,0.8-0.1,1-0.3
		C6.8,7.5,7,7.3,7,7c0-0.2-0.1-0.4-0.2-0.5C6.6,6.4,6.4,6.3,6.2,6.2C6,6.2,5.7,6.1,5.3,6C4.8,5.9,4.4,5.8,4.1,5.6
		C3.7,5.5,3.4,5.3,3.2,5C3,4.8,2.9,4.4,2.9,4.1c0-0.4,0.1-0.7,0.3-1c0.2-0.3,0.5-0.5,0.9-0.6c0.4-0.2,0.9-0.2,1.4-0.2
		c0.4,0,0.8,0,1.1,0.1C7,2.5,7.3,2.6,7.5,2.8C7.7,2.9,7.9,3.1,8,3.3c0.1,0.2,0.1,0.4,0.1,0.5C8.1,4,8,4.1,7.9,4.3
		C7.8,4.4,7.6,4.5,7.5,4.5c-0.2,0-0.3,0-0.4-0.1C7,4.3,6.9,4.1,6.8,4C6.7,3.7,6.5,3.5,6.3,3.4C6.2,3.3,5.9,3.2,5.5,3.2
		c-0.4,0-0.7,0.1-0.9,0.2C4.4,3.6,4.3,3.7,4.3,3.9c0,0.1,0,0.2,0.1,0.3c0.1,0.1,0.2,0.2,0.3,0.2C4.8,4.6,5,4.6,5.1,4.7
		c0.1,0,0.4,0.1,0.7,0.2C6.2,4.9,6.5,5,6.9,5.1c0.3,0.1,0.6,0.2,0.8,0.4c0.2,0.1,0.4,0.3,0.5,0.6c0.1,0.2,0.2,0.5,0.2,0.8
		C8.4,7.3,8.3,7.7,8.1,8z"/>
</g>
</svg>
