<?xml version="1.0" encoding="utf-8"?>
<!-- Generator: Adobe Illustrator 19.2.0, SVG Export Plug-In . SVG Version: 6.00 Build 0)  -->
<svg version="1.1" id="Layer_1" xmlns="http://www.w3.org/2000/svg" xmlns:xlink="http://www.w3.org/1999/xlink" x="0px" y="0px"
	 viewBox="0 0 11.3 11.3" style="enable-background:new 0 0 11.3 11.3;" xml:space="preserve">
<style type="text/css">
	.st0{fill:#FFFFFF;}
</style>
<g>
	<g>
		<path class="st0" d="M4.6,8.6l4.7-2.7c0.1,0,0.1-0.1,0.1-0.2c0-0.1,0-0.2-0.1-0.2L4.6,2.8c-0.1,0-0.2,0-0.2,0S4.3,2.9,4.3,3v1.3
			h-4C0.1,4.2,0,4.3,0,4.5v2.4C0,7,0.1,7.1,0.2,7.1h4v1.3c0,0.1,0,0.2,0.1,0.2c0,0,0.1,0,0.1,0C4.6,8.6,4.6,8.6,4.6,8.6z"/>
		<path class="st0" d="M9.6,0H4.7C4.6,0,4.5,0.1,4.5,0.2v0.7c0,0.1,0.1,0.2,0.2,0.2h4.8c0.3,0,0.6,0.3,0.6,0.6v7.8
			c0,0.3-0.3,0.6-0.6,0.6H4.7c-0.1,0-0.2,0.1-0.2,0.2v0.7c0,0.1,0.1,0.2,0.2,0.2h4.8c1,0,1.8-0.8,1.8-1.8V1.8C11.3,0.8,10.5,0,9.6,0
			z"/>
	</g>
</g>
</svg>
