<?xml version="1.0" encoding="utf-8"?>
<!-- Generator: Adobe Illustrator 19.2.1, SVG Export Plug-In . SVG Version: 6.00 Build 0)  -->
<svg version="1.1" id="Layer_1" xmlns="http://www.w3.org/2000/svg" xmlns:xlink="http://www.w3.org/1999/xlink" x="0px" y="0px"
	 viewBox="0 0 68.4 48.8" style="enable-background:new 0 0 68.4 48.8;" xml:space="preserve">
<style type="text/css">
	.st0{fill:#F4C9D7;}
	.st1{fill:#DDA783;}
	.st2{fill:#D199AE;}
	.st3{fill:#99CBDF;}
	.st4{fill:#7DBAA7;}
	.st5{fill:#2FABE1;}
	.st6{fill:#67C3E8;}
	.st7{fill:#007AA4;}
	.st8{fill:#FFFFFF;}
</style>
<g id="New_Symbol_8">
</g>
<g>
	<path class="st6" d="M49.6,48c0.3,0.3,0.8,0.5,1.3,0.5c0.2,0,0.4-0.1,0.7-0.1c0.7-0.3,1.1-0.9,1.1-1.6v-8.1c0.1,0,5.3,0,8.2,0
		c4.1-0.4,7.3-3.9,7.3-8.2V18.2c0-4.5-3.7-8.2-8.2-8.2H49.1v5.6c0,6.6-5.4,12-12,12H19.8L19,28.3l-0.1,3.3c0.5,4,4,7.1,8.1,7.1h13.1
		L49.6,48z"/>
	<path class="st7" d="M37.3,23.5c4.1,0,7.4-3.3,7.4-7.4V9.6V7.7c0-4.1-3.3-7.4-7.4-7.4H7.6c-4.1,0-7.4,3.3-7.4,7.4V16
		c0,3.9,3.1,7.2,7,7.4v7.3c0,0.6,0.4,1.2,1,1.5c0.2,0.1,0.4,0.1,0.6,0.1c0.4,0,0.8-0.2,1.1-0.5l6.4-6.3l2.1-2.1H37.3z"/>
	<g>
		<path class="st8" d="M21.1,12.9c0-2.1,2.6-2.4,2.6-3.6c0-0.6-0.4-1-1.4-1c-0.9,0-1.7,0.5-2.2,1.1l-1.5-1.6c1-1.1,2.4-1.7,3.9-1.7
			c2.3,0,3.7,1.2,3.7,2.8c0,2.6-3,2.8-3,4.3c0,0.3,0.1,0.6,0.3,0.8l-2,0.6C21.3,14,21.1,13.5,21.1,12.9z M21.1,16.9
			c0-0.8,0.7-1.5,1.5-1.5c0.8,0,1.5,0.7,1.5,1.5c0,0.8-0.7,1.5-1.5,1.5C21.7,18.3,21.1,17.7,21.1,16.9z"/>
	</g>
</g>
</svg>
