<?xml version="1.0" encoding="utf-8"?>
<!-- Generator: Adobe Illustrator 19.2.1, SVG Export Plug-In . SVG Version: 6.00 Build 0)  -->
<svg version="1.1" id="Layer_1" xmlns="http://www.w3.org/2000/svg" xmlns:xlink="http://www.w3.org/1999/xlink" x="0px" y="0px"
	 viewBox="0 0 7.9 5.9" style="enable-background:new 0 0 7.9 5.9;" xml:space="preserve">
<style type="text/css">
	.st0{fill:#F4C9D7;}
	.st1{fill:#DDA783;}
	.st2{fill:#D199AE;}
	.st3{fill:#99CBDF;}
	.st4{fill:#7DBAA7;}
</style>
<g id="New_Symbol_8">
</g>
<path class="st4" d="M7.6,1.6l-4,4C3.4,5.8,3.2,5.9,3,5.9S2.5,5.8,2.3,5.6L0.3,3.5C0.1,3.4,0,3.1,0,2.9c0-0.2,0.1-0.5,0.3-0.6
	C0.4,2.1,0.7,2,0.9,2c0.2,0,0.5,0.1,0.6,0.3L3,3.7l3.4-3.4C6.5,0.1,6.8,0,7,0c0.2,0,0.5,0.1,0.6,0.3C8,0.6,8,1.2,7.6,1.6z"/>
</svg>
