<?xml version="1.0" encoding="utf-8"?>
<!-- Generator: Adobe Illustrator 19.2.1, SVG Export Plug-In . SVG Version: 6.00 Build 0)  -->
<svg version="1.1" xmlns="http://www.w3.org/2000/svg" xmlns:xlink="http://www.w3.org/1999/xlink" x="0px" y="0px"
	 viewBox="0 0 412.5 417" style="enable-background:new 0 0 412.5 417;" xml:space="preserve">
<defs>
	<style type="text/css">
		@font-face {
		  font-family: "ProximaNova-Semibold";
		  src: url('../fonts/Proxima-Nova/Proxima-Nova-Semibold.otf') format("opentype");
		}
	</style>
</defs>
<style type="text/css">
	.st0{display:none;}
	.st1{display:inline;}
	.st2{fill:#F59964;}
	.st3{fill:#F27F3D;}
	.st4{clip-path:url(#XMLID_602_);fill:#6D998C;}
	.st5{fill:#6D998C;}
	.st6{clip-path:url(#XMLID_624_);}
	.st7{fill:#8E9BA3;}
	.st8{display:none;fill:#84A8BA;}
	.st9{fill:#D7D9D9;}
	.st10{clip-path:url(#XMLID_624_);fill:#326E8C;}
	.st11{fill:#4E555A;}
	.st12{fill:#84A8BA;}
	.st13{fill:#E6B25A;}
	.st14{fill:#CC8A7D;}
	.st15{fill:#FFFFFF;}
	.st16{fill:#CF9E43;}
	.st17{clip-path:url(#XMLID_628_);}
	.st18{fill-rule:evenodd;clip-rule:evenodd;fill:#544B45;}
	.st19{clip-path:url(#XMLID_632_);}
	.st20{fill:#726658;}
	.st21{fill:#B08D96;}
	.st22{clip-path:url(#XMLID_634_);}
	.st23{clip-path:url(#XMLID_636_);}
	.st24{fill-rule:evenodd;clip-rule:evenodd;fill:#C2913E;}
	.st25{fill:#F2C166;}
	.st26{fill:#D9928D;}
	.st27{clip-path:url(#XMLID_638_);}
	.st28{clip-path:url(#XMLID_640_);}
	.st29{fill:#D5B5C1;}
	.st30{clip-path:url(#XMLID_642_);fill:#D5B5C1;}
	.st31{clip-path:url(#XMLID_644_);fill:#D5B5C1;}
	.st32{fill:#83B7A6;}
	.st33{fill:#CF5C1A;}
	.st34{fill:#5B8BA3;}
	.st35{clip-path:url(#XMLID_646_);fill:#83B7A6;}
	.st36{clip-path:url(#XMLID_646_);fill:#6D998C;}
	.st37{clip-path:url(#XMLID_648_);}
	.st38{clip-path:url(#XMLID_650_);fill:#84A8BA;}
	.st39{clip-path:url(#XMLID_650_);fill:#5B8BA3;}
	.st40{clip-path:url(#XMLID_648_);fill:#5B8BA3;}
	.st41{clip-path:url(#XMLID_648_);fill:#84A8BA;}
	.st42{clip-path:url(#XMLID_648_);fill:#91CCBB;}

		.st43{clip-path:url(#XMLID_652_);fill:none;stroke:#91CCBB;stroke-width:4.279;stroke-linecap:round;stroke-linejoin:round;stroke-miterlimit:10;}
	.st44{fill:none;stroke:#91CCBB;stroke-width:4.279;stroke-linecap:round;stroke-linejoin:round;stroke-miterlimit:10;}
	.st45{fill:#91CCBB;}
	.st46{fill:#49665E;}
	.st47{clip-path:url(#XMLID_654_);fill:#F2C166;}
	.st48{clip-path:url(#XMLID_656_);fill:#F2C166;}
	.st49{fill:#D6E2E8;}
	.st50{fill:#326E8C;}
	.st51{fill:none;stroke:#84A8BA;stroke-width:11.8017;stroke-miterlimit:10;}
	.st52{fill:#ADC5D1;}
	.st53{fill:none;stroke:#D6E2E8;stroke-width:11.8017;stroke-miterlimit:10;}
	.st54{fill:#F5CD85;}
	.st55{clip-path:url(#XMLID_658_);}
	.st56{clip-path:url(#XMLID_658_);fill:#677682;}
	.st57{fill:#D99D8D;}
	.st58{clip-path:url(#XMLID_662_);}
	.st59{clip-path:url(#XMLID_664_);}
	.st60{clip-path:url(#SVGID_2_);}
	.st61{opacity:0.3;fill:#C1C1C1;}
	.st62{clip-path:url(#XMLID_666_);fill:#6D998C;}
	.st63{clip-path:url(#XMLID_670_);}
	.st64{clip-path:url(#XMLID_670_);fill:#326E8C;}
	.st65{clip-path:url(#XMLID_674_);}
	.st66{clip-path:url(#XMLID_676_);}
	.st67{clip-path:url(#XMLID_678_);}
	.st68{clip-path:url(#XMLID_680_);}
	.st69{clip-path:url(#XMLID_682_);}
	.st70{clip-path:url(#XMLID_684_);}
	.st71{clip-path:url(#XMLID_686_);fill:#D5B5C1;}
	.st72{clip-path:url(#XMLID_688_);fill:#D5B5C1;}
	.st73{clip-path:url(#SVGID_4_);fill:#F2C166;}
	.st74{opacity:0.3;clip-path:url(#SVGID_4_);fill:#C1C1C1;}
	.st75{clip-path:url(#SVGID_4_);}
	.st76{clip-path:url(#XMLID_690_);fill:#83B7A6;}
	.st77{clip-path:url(#XMLID_690_);fill:#6D998C;}
	.st78{clip-path:url(#XMLID_692_);}
	.st79{clip-path:url(#XMLID_694_);fill:#84A8BA;}
	.st80{clip-path:url(#XMLID_694_);fill:#5B8BA3;}
	.st81{clip-path:url(#XMLID_692_);fill:#5B8BA3;}
	.st82{clip-path:url(#XMLID_692_);fill:#84A8BA;}
	.st83{clip-path:url(#XMLID_692_);fill:#91CCBB;}

		.st84{clip-path:url(#XMLID_696_);fill:none;stroke:#91CCBB;stroke-width:3.6954;stroke-linecap:round;stroke-linejoin:round;stroke-miterlimit:10;}
	.st85{fill:none;stroke:#91CCBB;stroke-width:3.6954;stroke-linecap:round;stroke-linejoin:round;stroke-miterlimit:10;}
	.st86{clip-path:url(#SVGID_6_);fill:#F59964;}
	.st87{clip-path:url(#SVGID_6_);}
	.st88{clip-path:url(#XMLID_698_);fill:#F2C166;}
	.st89{clip-path:url(#XMLID_700_);fill:#F2C166;}
	.st90{fill:none;stroke:#84A8BA;stroke-width:14.3332;stroke-miterlimit:10;}
	.st91{fill:none;stroke:#D6E2E8;stroke-width:14.3332;stroke-miterlimit:10;}
	.st92{fill:#B9B9B9;}
	.st93{clip-path:url(#SVGID_8_);}
	.st94{clip-path:url(#XMLID_702_);fill:#6D998C;}
	.st95{clip-path:url(#XMLID_706_);}
	.st96{clip-path:url(#XMLID_706_);fill:#326E8C;}
	.st97{clip-path:url(#XMLID_710_);}
	.st98{clip-path:url(#XMLID_712_);}
	.st99{clip-path:url(#XMLID_714_);}
	.st100{clip-path:url(#XMLID_716_);}
	.st101{clip-path:url(#XMLID_718_);}
	.st102{clip-path:url(#XMLID_720_);}
	.st103{clip-path:url(#XMLID_722_);fill:#D5B5C1;}
	.st104{clip-path:url(#XMLID_724_);fill:#D5B5C1;}
	.st105{clip-path:url(#SVGID_10_);fill:#F2C166;}
	.st106{opacity:0.3;clip-path:url(#SVGID_10_);fill:#C1C1C1;}
	.st107{clip-path:url(#SVGID_10_);}
	.st108{clip-path:url(#XMLID_726_);fill:#83B7A6;}
	.st109{clip-path:url(#XMLID_726_);fill:#6D998C;}
	.st110{clip-path:url(#XMLID_728_);}
	.st111{clip-path:url(#XMLID_730_);fill:#84A8BA;}
	.st112{clip-path:url(#XMLID_730_);fill:#5B8BA3;}
	.st113{clip-path:url(#XMLID_728_);fill:#5B8BA3;}
	.st114{clip-path:url(#XMLID_728_);fill:#84A8BA;}
	.st115{clip-path:url(#XMLID_728_);fill:#91CCBB;}

		.st116{clip-path:url(#XMLID_732_);fill:none;stroke:#91CCBB;stroke-width:3.6954;stroke-linecap:round;stroke-linejoin:round;stroke-miterlimit:10;}
	.st117{clip-path:url(#SVGID_12_);fill:#F59964;}
	.st118{clip-path:url(#SVGID_12_);}
	.st119{clip-path:url(#XMLID_734_);fill:#F2C166;}
	.st120{clip-path:url(#XMLID_736_);fill:#F2C166;}
	.st121{fill:#A67C50;}
	.st122{fill:#BB8F53;}
	.st123{fill:#C5A06D;}
	.st124{fill:#EDD8BE;}
	.st125{fill:#D3B6C6;}
	.st126{fill:#BA95B1;}
	.st127{fill:#9E7A94;}
	.st128{fill:#FFCA89;}
	.st129{fill:#D6672F;}
	.st130{fill:#B55F2E;}
	.st131{fill:#D8EAE9;}
	.st132{fill:#6EA998;}
	.st133{fill:#5F9987;}
	.st134{fill:#6F93AB;}
	.st135{fill:#AFC9DC;}
	.st136{fill:#50758C;}
	.st137{fill:#425C6C;}
	.st138{fill:#E29E9E;}
	.st139{fill:#B8825E;}
	.st140{fill:#D6A549;}
	.st141{fill:#FFDE91;}
	.st142{fill:#CE8C8C;}
	.st143{fill:#EAB2B2;}
	.st144{fill:#9D7650;}
	.st145{fill:#C99976;}
	.st146{clip-path:url(#SVGID_14_);fill:#DAE9F2;}
	.st147{opacity:0.5;clip-path:url(#SVGID_14_);fill:#6F93AB;}
	.st148{clip-path:url(#SVGID_14_);}
	.st149{fill:#FEFEFE;}
	.st150{fill:#88A3BD;}
	.st151{fill:#88BDAD;}
	.st152{clip-path:url(#XMLID_759_);}
	.st153{fill-rule:evenodd;clip-rule:evenodd;fill:#D6BD92;}
	.st154{clip-path:url(#XMLID_761_);}
	.st155{fill:#BA9BA3;}
	.st156{clip-path:url(#XMLID_765_);}
	.st157{fill:#EFD4A3;}
	.st158{clip-path:url(#SVGID_16_);}
	.st159{clip-path:url(#XMLID_768_);}
	.st160{clip-path:url(#XMLID_770_);}
	.st161{clip-path:url(#XMLID_770_);fill:#326E8C;}
	.st162{clip-path:url(#XMLID_839_);}
	.st163{clip-path:url(#XMLID_840_);}
	.st164{clip-path:url(#XMLID_841_);}
	.st165{clip-path:url(#XMLID_842_);}
	.st166{clip-path:url(#XMLID_843_);}
	.st167{clip-path:url(#XMLID_844_);fill:#D5B5C1;}
	.st168{clip-path:url(#XMLID_845_);fill:#D5B5C1;}
	.st169{fill:#E7F4F5;}
	.st170{fill:#67C3E8;}
</style>
<g id="Layer_1" class="st0">
</g>
<g id="Layer_2">
	<g>
		<path style="fill:#F0BF66;" d="M387.8,146.3H24.7V25.4c0-6,4.9-10.9,10.9-10.9h341.3c6,0,10.9,4.9,10.9,10.9V146.3z"/>
		<rect x="24.7" y="142.6" style="fill:#66C4EA;" width="363.1" height="131.8"/>
		<path style="fill:#F79967;" d="M376.9,402.5H35.6c-6,0-10.9-4.9-10.9-10.9V270.7h363.1v120.9C387.8,397.6,382.9,402.5,376.9,402.5
			z"/>
		<g>
			<path class="st15" d="M342.5,81c-1.5-3.2-1.4-6.8,0.3-9.4c1.5-2.4,4.2-3.8,7.2-3.8c0.3,0,0.6,0.1,0.9,0.1V31.3
				c0-2.1-1.7-3.8-3.8-3.8h-70.4c-2.1,0-3.8,1.7-3.8,3.8v36.5c0.2,0,0.4-0.1,0.7-0.1c3.1,0,5.7,1.4,7.2,3.8c1.7,2.7,1.8,6.3,0.3,9.4
				c-1.3,2.7-3.5,5.6-5.5,8.1c-0.9,1.1-2,2.6-2.7,3.6v31.6c0,2.1,1.7,3.8,3.8,3.8h70.4c2.1,0,3.8-1.7,3.8-3.8V93
				c-0.6-1-1.9-2.7-2.9-3.9C346,86.6,343.7,83.7,342.5,81z M338.9,116.1c0,1.4-1.1,2.5-2.5,2.5h-49.1c-1.4,0-2.5-1.1-2.5-2.5V92
				c0-1.4,1.1-2.5,2.5-2.5h49.1c1.4,0,2.5,1.1,2.5,2.5V116.1z M284.8,80.6c0-1.5,1.2-2.7,2.7-2.7h32.2c1.5,0,2.7,1.2,2.7,2.7
				c0,1.5-1.2,2.7-2.7,2.7h-32.2C286,83.3,284.8,82.1,284.8,80.6z M336.2,71.4h-48.7c-1.5,0-2.7-1.2-2.7-2.7c0-1.5,1.2-2.7,2.7-2.7
				h48.7c1.5,0,2.7,1.2,2.7,2.7C338.9,70.2,337.7,71.4,336.2,71.4z M336.2,59.5h-48.7c-1.5,0-2.7-1.2-2.7-2.7c0-1.5,1.2-2.7,2.7-2.7
				h48.7c1.5,0,2.7,1.2,2.7,2.7C338.9,58.3,337.7,59.5,336.2,59.5z M334.9,46h-46c-2.2,0-4-1.8-4-4c0-2.2,1.8-4.1,4-4.1h46
				c2.2,0,4,1.8,4,4.1C338.9,44.2,337.1,46,334.9,46z"/>
			<path class="st15" d="M330.6,95.8h-37.3c-2.1,0-3.7,1.6-3.7,3.7c0,2,1.7,3.7,3.7,3.7h37.3c2,0,3.7-1.7,3.7-3.7
				C334.3,97.4,332.7,95.8,330.6,95.8z"/>
			<path class="st15" d="M331.6,108.1h-39.3c-1.5,0-2.7,1.2-2.7,2.7c0,1.5,1.2,2.7,2.7,2.7h39.3c1.5,0,2.7-1.2,2.7-2.7
				C334.3,109.4,333.1,108.1,331.6,108.1z"/>
			<path class="st15" d="M276.5,78.9c1.7-3.5-0.4-6.7-3.6-6.1c-3.3,0.4-8.5,3.5-15.8,11.9c-5.9,6.7-10.7,22.8,10.5,29.6V93.7
				c0-1.2,0.4-2.4,1.1-3.5C270.7,87.1,275.4,81.2,276.5,78.9z"/>
			<path class="st15" d="M366.5,84.7c-7.2-8.3-12.3-11.4-15.6-11.9c-4.2-0.6-5.2,3.1-3.9,6.1c1.1,2.3,5.8,8.2,7.9,11.4
				c0.7,1,1.1,2.2,1.1,3.4v20.6C377.1,107.5,372.3,91.5,366.5,84.7z"/>
		</g>
		<g>
			<path class="st15" d="M368,155.9H255.4c-3.3,0-6,2.7-6,6v70.6c0,3.4,2.7,6,6,6h42.1v13.7h-12c-2.4,0-4.4,2-4.4,4.4
				c0,2.4,2,4.4,4.4,4.4h52.4c2.4,0,4.4-2,4.4-4.4c0-2.4-2-4.4-4.4-4.4h-12v-13.7H368c3.3,0,6-2.7,6-6V162
				C374.1,158.6,371.4,155.9,368,155.9z M366.7,228.8c0,1.5-1.2,2.7-2.7,2.7H259.5c-1.5,0-2.7-1.2-2.7-2.7v-63
				c0-1.5,1.2-2.7,2.7-2.7H364c1.5,0,2.7,1.2,2.7,2.7V228.8z"/>
			<path class="st15" d="M291.7,199.1c6.5,0,11.8-6.2,11.8-13.8c0-10.6-5.3-13.8-11.8-13.8c-6.5,0-11.8,3.2-11.8,13.8
				C279.9,192.9,285.2,199.1,291.7,199.1z"/>
			<path class="st15" d="M300.6,201.8c-5.5,4.1-12.6,4-17.8,0c-6.4-4.9-19.6,18.3-17,22.5c0.6,0.9,1.5,1.4,2.5,1.4h46.8
				c1,0,1.9-0.5,2.5-1.4C320.3,220.2,306.6,196.6,300.6,201.8z"/>
			<path class="st15" d="M327.6,225.7h10.5c0.1-1.9,2.2-4.2,3.6-5.1c0.4-0.3,1-0.3,1.4,0c1.2,0.6,2.5,0.6,3.7,0c0.5-0.3,1-0.3,1.4,0
				c1.3,0.9,3.5,3.2,3.6,5.1h6.2c0.7,0,1.3-0.6,1.3-1.3v-16.9h-31.8V225.7z M345,210.6c1.7,0,3.1,0.9,3.1,3.6c0,2-1.4,3.7-3.1,3.7
				c-1.7,0-3.1-1.6-3.1-3.7C341.9,211.5,343.3,210.6,345,210.6z"/>
			<path class="st15" d="M342.7,202.8c0.3,0.3,0.6,0.4,1,0.4c0.2,0,0.3,0,0.5-0.1c0.5-0.2,0.8-0.7,0.8-1.2v-6.2c0.1,0,4.1,0,6.3,0
				c3.1-0.3,5.6-3,5.6-6.2V180c0-3.5-2.8-6.3-6.3-6.3h-8.3v4.3c0,5.1-4.1,9.2-9.2,9.2h-10.8l-3.1,3c0.4,3.1,3,5.4,6.2,5.4h10
				L342.7,202.8z"/>
			<path class="st15" d="M333.1,183c2.7,0,4.9-2.2,4.9-4.9v-4.3v-1.2c0-2.7-2.2-4.9-4.9-4.9h-19.7c-2.7,0-4.9,2.2-4.9,4.9v5.5
				c0,2.6,2.1,4.7,4.6,4.9v4.8c0,0.4,0.3,0.8,0.7,1c0.1,0,0.3,0.1,0.4,0.1c0.3,0,0.5-0.1,0.7-0.3l4.2-4.2l1.4-1.4H333.1z"/>
		</g>
		<g>
			<g>
				<path class="st15" d="M362.7,364.3v-67.7c0-2.5-2.1-4.6-4.6-4.6h-92.4c-2.5,0-4.6,2-4.6,4.6v67.7l-11.5,13.8
					c0,3.8,3.1,6.9,6.9,6.9h110.8c3.8,0,6.9-3.1,6.9-6.9L362.7,364.3z M321.2,382.8h-18.5c-0.7,0-1.2-0.5-1.2-1.2
					c0-0.6,0.5-1.2,1.2-1.2h18.5c0.6,0,1.2,0.5,1.2,1.2C322.3,382.3,321.8,382.8,321.2,382.8z M292.9,378.2l3.5-4.2h31l3.5,4.2
					H292.9z M356.2,356.1c0,2.2-1.8,4-4,4h-80.5c-2.2,0-4-1.8-4-4v-54.4c0-2.2,1.8-4,4-4h80.5c2.2,0,4,1.8,4,4V356.1z"/>
			</g>
			<g>
				<path class="st15" d="M285.4,302.6v23.5h53.1v-23.5H285.4z"/>
				<rect x="285.4" y="332.7" class="st15" width="39.7" height="4.4"/>
				<rect x="333.3" y="332.7" class="st15" width="5.2" height="4.4"/>
				<rect x="333.3" y="341.5" class="st15" width="5.2" height="4.4"/>
				<rect x="333.3" y="350.3" class="st15" width="5.2" height="4.4"/>
				<rect x="285.4" y="341.5" class="st15" width="28.2" height="4.4"/>
				<rect x="285.4" y="350.3" class="st15" width="34.3" height="4.4"/>
			</g>
		</g>
		<path style="fill:#F0BF66;" d="M220.3,141.9l-12,20.8c-1,1.8-3.7,1.8-4.7,0l-12-20.8H220.3z"/>
		<path style="fill:#66C4EA;" d="M220.3,270.2l-12,20.8c-1,1.8-3.7,1.8-4.7,0l-12-20.8H220.3z"/>
		<g>
			<text transform="matrix(1 0 0 1 48.0714 191.4418)"><tspan x="0" y="0" class="st15" style="font-family:'ProximaNova-Semibold'; font-size:28.9183px;">English </tspan><tspan x="0" y="27.8" class="st15" style="font-family:'ProximaNova-Semibold'; font-size:28.9183px;">conversation</tspan><tspan x="0" y="55.6" class="st15" style="font-family:'ProximaNova-Semibold'; font-size:28.9183px;">lesson </tspan></text>
		</g>
		<g>
			<text transform="matrix(1 0 0 1 48.0714 72.7796)"><tspan x="0" y="0" class="st15" style="font-family:'ProximaNova-Semibold'; font-size:28.9183px;">Preparation</tspan><tspan x="0" y="27.8" class="st15" style="font-family:'ProximaNova-Semibold'; font-size:28.9183px;">lesson</tspan></text>
		</g>
		<g>
			<text transform="matrix(1 0 0 1 48.0714 332.6527)"><tspan x="0" y="0" class="st15" style="font-family:'ProximaNova-Semibold'; font-size:28.9183px;">Follow-up</tspan><tspan x="0" y="27.8" class="st15" style="font-family:'ProximaNova-Semibold'; font-size:28.9183px;">lesson</tspan></text>
		</g>
	</g>
</g>
</svg>
