<?xml version="1.0" encoding="utf-8"?>
<!-- Generator: Adobe Illustrator 19.2.1, SVG Export Plug-In . SVG Version: 6.00 Build 0)  -->
<svg version="1.1" id="Layer_1" xmlns="http://www.w3.org/2000/svg" xmlns:xlink="http://www.w3.org/1999/xlink" x="0px" y="0px"
	 viewBox="0 0 17.5 17.5" style="enable-background:new 0 0 17.5 17.5;" xml:space="preserve">
<style type="text/css">
	.st0{fill:#77B9EC;}
	.st1{fill:#63A6CE;}
	.st2{fill:#3C6C77;}
	.st3{clip-path:url(#SVGID_5_);fill:#34565B;}
	.st4{fill:#A8CEE5;}
	.st5{fill:#71A6C6;}
	.st6{fill:#319AD5;}
	.st7{fill:#98CD60;}
	.st8{fill:#7FB02C;}
	.st9{fill:#7EB21B;}
	.st10{fill:#336600;}
	.st11{fill:#CFE0A0;}
	.st12{fill:#F6A2E2;}
	.st13{fill:#DDA2C9;}
	.st14{fill:#EA96D0;}
	.st15{fill:#990066;}
	.st16{fill:#F2CEE9;}
</style>
<symbol  id="New_Symbol_12" viewBox="-33.9 -33.9 67.8 67.8">
	<circle class="st0" cx="0" cy="0" r="33.9"/>
	<g>
		<ellipse class="st1" cx="0" cy="-16.6" rx="16.7" ry="3.3"/>
		<g>
			<g>
				<path id="SVGID_3_" class="st2" d="M-0.7-7.1c0,0.8,1.3,0.8,1.3,0c0-2.3,0-4.6,0-7c0-0.8-1.3-0.8-1.3,0
					C-0.7-11.7-0.7-9.4-0.7-7.1z M-8.7-7c-2.1-3.1-4.3-6.1-6.4-9.1c-0.5-0.7,0.7-1.3,1.1-0.7c2.1,3.1,4.3,6.1,6.4,9.1
					C-7.1-6.9-8.2-6.3-8.7-7z M8-7.6c2.1-3.1,4.3-6.1,6.4-9.1c0.5-0.7,1.6-0.1,1.1,0.7C13.4-13,11.2-10,9-7C8.6-6.3,7.5-6.9,8-7.6z"
					/>
			</g>
			<g>
				<defs>
					<path id="SVGID_4_" d="M-0.7-7.1c0,0.8,1.3,0.8,1.3,0c0-2.3,0-4.6,0-7c0-0.8-1.3-0.8-1.3,0C-0.7-11.7-0.7-9.4-0.7-7.1z M-8.7-7
						c-2.1-3.1-4.3-6.1-6.4-9.1c-0.5-0.7,0.7-1.3,1.1-0.7c2.1,3.1,4.3,6.1,6.4,9.1C-7.1-6.9-8.2-6.3-8.7-7z M8-7.6
						c2.1-3.1,4.3-6.1,6.4-9.1c0.5-0.7,1.6-0.1,1.1,0.7C13.4-13,11.2-10,9-7C8.6-6.3,7.5-6.9,8-7.6z"/>
				</defs>
				<clipPath id="SVGID_5_">
					<use xlink:href="#SVGID_4_"  style="overflow:visible;"/>
				</clipPath>
				<rect x="-13.7" y="-8.7" class="st3" width="27" height="0.8"/>
			</g>
		</g>
		<g>
			<rect x="-14.8" y="-7.1" class="st4" width="29.5" height="23.1"/>
			<path class="st2" d="M15.4-7.7h-30.8v24.3h30.8V-7.7z M-14.1-6.5h28.2v21.8h-28.2V-6.5z"/>
		</g>
		<polygon class="st2" points="-0.5,5.4 -4.3,9.6 -3.3,10.7 -0.5,8.5 5.1,12.7 6.1,11.6 		"/>
		<g>
			<path class="st2" d="M-4.4-2.6l-0.5,1.3H-8l-0.5-1.3h-1.3l2.6,6.5h1.5l2.6-6.5C-3.1-2.6-4.4-2.6-4.4-2.6z M-6.4,2.8l-1.2-3.1h2.4
				L-6.4,2.8z"/>
			<path class="st2" d="M-2.3-2.6v6.5h3.3c1.2,0,1.9-0.8,1.9-1.7c0-0.8-0.5-1.4-1.1-1.5C2.4,0.6,3-0.1,3-0.9c0-1-0.7-1.7-1.9-1.7
				L-2.3-2.6L-2.3-2.6z M1.6,2.1c0,0.5-0.3,0.9-0.9,0.9h-1.9V1.2h1.9C1.3,1.2,1.6,1.6,1.6,2.1z M1.7-0.7c0,0.5-0.3,0.9-1,0.9h-1.9
				v-1.8h1.9C1.4-1.6,1.7-1.3,1.7-0.7z"/>
			<path class="st2" d="M3.8,0.6c0,2,1.5,3.4,3.5,3.4C8.7,4,9.5,3.3,10,2.6l-1-0.5C8.6,2.6,8,3,7.2,3C5.9,3,5,2.1,5,0.7
				s1-2.3,2.3-2.3c0.7,0,1.4,0.4,1.7,1l1-0.5C9.4-1.9,8.6-2.6,7.2-2.6C5.3-2.7,3.8-1.4,3.8,0.6z"/>
		</g>
		<rect x="-16.7" y="14.4" class="st2" width="33.5" height="3.1"/>
		<rect x="-14.1" y="13.5" class="st5" width="28.3" height="1.2"/>
	</g>
</symbol>
<use xlink:href="#New_Symbol_12"  width="67.8" height="67.8" x="-33.9" y="-33.9" transform="matrix(0.2585 0 0 -0.2585 8.7579 8.7579)" style="overflow:visible;"/>
</svg>
