<?xml version="1.0" encoding="utf-8"?>
<!-- Generator: Adobe Illustrator 19.2.1, SVG Export Plug-In . SVG Version: 6.00 Build 0)  -->
<svg version="1.1" id="Layer_1" xmlns="http://www.w3.org/2000/svg" xmlns:xlink="http://www.w3.org/1999/xlink" x="0px" y="0px"
	 viewBox="0 0 17.5 17.5" style="enable-background:new 0 0 17.5 17.5;" xml:space="preserve">
<style type="text/css">
	.st0{fill:#F6A2E2;}
	.st1{fill:#DDA2C9;}
	.st2{fill:#EA96D0;}
	.st3{fill:#990066;}
	.st4{fill:#F2CEE9;}
	.st5{fill:#319AD5;}
	.st6{fill:#98CD60;}
	.st7{fill:#7FB02C;}
	.st8{fill:#7EB21B;}
	.st9{fill:#336600;}
	.st10{fill:#CFE0A0;}
	.st11{fill:#77B9EC;}
	.st12{fill:#63A6CE;}
	.st13{fill:#3C6C77;}
	.st14{clip-path:url(#SVGID_5_);fill:#34565B;}
	.st15{fill:#A8CEE5;}
	.st16{fill:#71A6C6;}
</style>
<symbol  id="New_Symbol_11" viewBox="-33.9 -33.9 67.8 67.8">
	<circle class="st0" cx="0" cy="0" r="33.9"/>
	<g>
		<g>
			<path class="st1" d="M2.9,20.3l-0.4-9.7c0,0-1-4.2,2.1-6.7c0,0,3.5-3.7,0-8.5c-5.4-5-9.4,0-9.4,0c-3.5,4.9,0,8.5,0,8.5
				c3,2.5,2.7,6.8,2.7,6.8l0.4,9.5L2.9,20.3C2.9,20.2,2.9,20.3,2.9,20.3z"/>
		</g>
		<path class="st2" d="M4.2-13.2c0,0-3.8,0-8.1,2.1c0,0,4-5.8,4.9-8.9c1-3.1,3.1,5.9,3.1,5.9"/>
		<g>
			<path class="st3" d="M2.9-21l-1.5,0.3l1.3,5.9c0.2,0.9,1.2,2.1,3,1.8l1.8-0.4c0,0,3.3-0.7,4,1.1c0,0.3,0.1,0.9,0,1.4
				c-0.2,1,0.4,1.9,0.5,2.1l0.1,0.1l0.1,0.1L9.7-7.8l2.4,0.7c0.1,0,0.3,0.1,0.4,0.1c-0.1,0.3-0.2,0.7-0.4,1.1l0,0.1v0.1
				c-0.1,0.9,0.3,2,1.4,2.1c0.8,0.1,1.6,0.4,1.7,0.6c0,0.2-0.2,0.5-0.3,0.7L11.7,2l0,0.1c-0.1,0.3-0.5,1.7-0.1,2.6L11.7,5l0.3,0.1
				c0.4,0.2,0.3,0.6,0.2,0.8c-0.5,1.5-1,3.7-1,3.8v0C11.3,10,9.9,17.6,2,19.1c-0.1,0-9.6,1.9-13.9-3.6l0,0c0,0-4-4.5-3.1-9.4
				c0.9-5.2,4.2-11.8,4.2-11.8l0-0.1l0-0.1c0.1-0.3,1.7-8.2-1-14.8l-1.4,0.6c2.4,5.8,1.1,12.9,0.9,13.8c-0.4,0.9-3.4,7-4.3,12.2
				c-1,5.5,3.1,10.3,3.5,10.6c2,2.6,5.4,4,9.6,4.4c3.2,0.2,5.7-0.3,5.8-0.3C11,18.9,12.7,10.4,12.8,10c0-0.1,0.5-2.3,0.9-3.6
				c0.3-0.8,0.1-1.4-0.1-1.8c-0.2-0.4-0.5-0.6-0.7-0.8c0-0.3,0.1-0.8,0.2-1.1l3.1-4c0.2-0.4,0.9-1.6,0.4-2.4C16-4.7,14.3-5,13.7-5
				c0-0.1-0.1-0.3-0.1-0.4c0.2-0.5,0.4-1.1,0.5-1.5c0.1-0.2,0.1-0.4,0-0.6C14.1-7.7,14-7.8,13.9-8C13.9-8,14-8.1,14-8.2
				c0.1-0.5-0.1-0.8-0.3-1l-0.4-0.4c-0.1-0.2-0.3-0.7-0.2-1c0.1-0.8,0-1.8,0-1.9v-0.1l0-0.1c-0.3-1-1.2-2.2-3.4-2.4
				c-1.2-0.1-2.2,0.1-2.4,0.2l-1.8,0.4c-1,0.2-1.2-0.5-1.3-0.6L2.9-21z"/>
		</g>
		<g>
			<g>
				<path class="st2" d="M2.9,21.4l-0.4-9.7c0,0-1-4.2,2.1-6.7c0,0,3.5-3.7,0-8.5c-5.4-5-9.4,0-9.4,0c-3.5,4.9,0,8.5,0,8.5
					c3,2.5,2.7,6.8,2.7,6.8l0.4,9.5L2.9,21.4z"/>
				<path class="st3" d="M-0.1-6c-3,0-4.9,2.3-4.9,2.4c-3.6,5.1,0,9,0,9l0,0c2.8,2.3,2.6,6.4,2.6,6.5l0.4,10h5.4L3,11.7
					c0,0-0.8-3.9,2-6.3l0,0c0,0,3.7-4,0-9L5-3.7C3.4-5.3,1.7-6-0.1-6z M-4.3-3.1c0,0,1.7-2,4.3-2c1.5,0,3,0.7,4.5,2.1
					c3.1,4.3,0.3,7.6,0,7.9c-3.1,2.5-2.4,6.6-2.3,7l0.4,9.2h-3.7l-0.4-9.2c0-0.1,0.2-4.5-2.9-7.1C-4.7,4.5-7.5,1.3-4.3-3.1z"/>
			</g>
		</g>
		<g>
			<ellipse class="st4" cx="0.1" cy="1" rx="4.3" ry="4.5"/>
			<path class="st3" d="M0.1-3.9c-2.6,0-4.7,2.2-4.7,4.9S-2.5,6,0.1,6S4.8,3.8,4.8,1S2.7-3.9,0.1-3.9z M0.1,5.1
				C-2,5.1-3.8,3.3-3.8,1S-2-3.1,0.1-3.1S4-1.2,4,1S2.2,5.1,0.1,5.1z"/>
		</g>
	</g>
</symbol>
<use xlink:href="#New_Symbol_11"  width="67.8" height="67.8" x="-33.9" y="-33.9" transform="matrix(0.2585 0 0 -0.2585 8.7579 8.7579)" style="overflow:visible;"/>
</svg>
