<?xml version="1.0" encoding="utf-8"?>
<!-- Generator: Adobe Illustrator 19.2.1, SVG Export Plug-In . SVG Version: 6.00 Build 0)  -->
<svg version="1.1" id="Layer_1" xmlns="http://www.w3.org/2000/svg" xmlns:xlink="http://www.w3.org/1999/xlink" x="0px" y="0px"
	 viewBox="0 0 17.5 17.5" style="enable-background:new 0 0 17.5 17.5;" xml:space="preserve">
<style type="text/css">
	.st0{fill:#98CD60;}
	.st1{fill:#7FB02C;}
	.st2{fill:#7EB21B;}
	.st3{fill:#336600;}
	.st4{fill:#CFE0A0;}
	.st5{fill:#319AD5;}
	.st6{fill:#F6A2E2;}
	.st7{fill:#DDA2C9;}
	.st8{fill:#EA96D0;}
	.st9{fill:#990066;}
	.st10{fill:#F2CEE9;}
	.st11{fill:#77B9EC;}
	.st12{fill:#63A6CE;}
	.st13{fill:#3C6C77;}
	.st14{clip-path:url(#SVGID_5_);fill:#34565B;}
	.st15{fill:#A8CEE5;}
	.st16{fill:#71A6C6;}
</style>
<symbol  id="New_Symbol_10" viewBox="-33.9 -33.9 67.8 67.8">
	<circle class="st0" cx="0" cy="0" r="33.9"/>
	<g>
		<g>
			<g>
				<path class="st1" d="M17.3-14.6h-34.6c-0.5,0-0.9,0.4-0.9,0.9v24.9c0,0.5,0.4,0.9,0.9,0.9h34.6c0.5,0,0.9-0.4,0.9-0.9v-24.9
					C18.1-14.2,17.8-14.6,17.3-14.6z"/>
				<g>
					<path class="st2" d="M17.3-12.7h-34.6c-0.5,0-0.9,0.4-0.9,0.9V13c0,0.5,0.4,0.9,0.9,0.9h34.6c0.5,0,0.9-0.4,0.9-0.9v-24.9
						C18.1-12.4,17.8-12.7,17.3-12.7z"/>
					<path class="st3" d="M17.3-13.5h-34.6c-0.9,0-1.5,0.7-1.5,1.5V13c0,0.9,0.7,1.5,1.5,1.5h34.7c0.9,0,1.5-0.7,1.5-1.5v-24.9
						C18.8-12.7,18.1-13.5,17.3-13.5z M-17.3,13.1c-0.1,0-0.1,0-0.1-0.1v-24.9c0-0.1,0-0.1,0.1-0.1h34.7c0.1,0,0.1,0,0.1,0.1V13
						c0,0.1,0,0.1-0.1,0.1H-17.3z"/>
				</g>
				<g>
					<g id="XMLID_701_">
						<g>
							<g>
								<path class="st4" d="M11.7,16.1c2.4,0,3.8-1.6,3.6-3.8V-3.2c0-2.4-1.4-3.8-3.8-3.8c0,0-7.1-0.1-9.6-3.1
									c-1.5-1.6-3.1-0.7-3.8,0C-5.4-7.2-11.5-7-11.5-7c-2,0-3.8,1.5-3.8,3.8v15.3c0,2.5,1.1,4,3.8,4c0,0,7.6-0.6,11.8-4.8
									C4.6,15.7,11.7,16.1,11.7,16.1z"/>
							</g>
						</g>
						<g>
							<g>
								<path class="st3" d="M0.1-11.7c-1.2,0-2.1,0.8-2.5,1.1c-3.2,2.7-9.1,2.9-9.2,2.9c-2.6,0-4.5,2-4.5,4.5v15.3
									c0,2.1,0.8,4.7,4.5,4.7h0c0.3,0,7.4-0.6,11.8-4.5c4.5,4.1,11.1,4.5,11.4,4.5h0c1.3,0,2.5-0.5,3.3-1.3c0.8-0.9,1.1-2,1-3.2
									V-3.2c0-2.8-1.8-4.5-4.5-4.5c0,0-6.8-0.2-9.1-2.8C1.6-11.5,0.6-11.7,0.1-11.7z M-11.6,15.4c-2.1,0-3.1-1-3.1-3.3V-3.2
									c0-2,1.5-3.1,3.1-3.1c0.3,0,6.5-0.2,10.1-3.3l0,0c0.1-0.1,0.8-0.7,1.5-0.7c0.5,0,0.9,0.3,1.3,0.7c2.7,3.1,9.8,3.3,10.1,3.3
									c2,0,3.1,1.1,3.1,3.1v15.5c0,0.9-0.1,1.6-0.7,2.1c-0.5,0.6-1.3,0.9-2.3,0.9c-0.4,0-6.9-0.5-10.9-4.5l-0.5-0.5l-0.5,0.6
									C-4.1,14.7-11.2,15.3-11.6,15.4z"/>
							</g>
						</g>
					</g>
				</g>
				<path class="st2" d="M11.6,10.7C7.6,10.4,3.5,9,0.4,6.4c-0.1-0.1-0.3-0.1-0.5,0c-3.2,2.7-7.5,4-11.6,4.3c-0.9,0-0.9-1.4,0-1.4
					c4-0.3,8.4-1.7,11.3-4.5c0.3-0.3,0.7-0.3,1,0c2.8,2.8,7,4.3,10.9,4.5C12.5,9.3,12.5,10.7,11.6,10.7z"/>
				<path class="st2" d="M11.6,5.8c-4-0.2-8.1-1.7-11.2-4.3c-0.1-0.1-0.3-0.1-0.5,0c-3.2,2.7-7.5,4-11.6,4.3c-0.9,0-0.9-1.4,0-1.4
					c4-0.3,8.4-1.7,11.3-4.5c0.3-0.3,0.7-0.3,1,0c2.8,2.8,7,4.3,10.9,4.5C12.5,4.5,12.5,5.9,11.6,5.8z"/>
				<path class="st2" d="M11.6,0.5c-4-0.2-8.1-1.7-11.2-4.3c-0.1-0.1-0.3-0.1-0.5,0c-3.2,2.7-7.5,4-11.6,4.3c-0.9,0-0.9-1.4,0-1.4
					c4-0.3,8.4-1.7,11.3-4.5c0.3-0.3,0.7-0.3,1,0c2.8,2.8,7,4.3,10.9,4.5C12.5-0.8,12.5,0.6,11.6,0.5z"/>
			</g>
		</g>
	</g>
</symbol>
<use xlink:href="#New_Symbol_10"  width="67.8" height="67.8" x="-33.9" y="-33.9" transform="matrix(0.2585 0 0 -0.2585 8.7579 8.7579)" style="overflow:visible;"/>
</svg>
