<?xml version="1.0" encoding="utf-8"?>
<!-- Generator: Adobe Illustrator 19.2.1, SVG Export Plug-In . SVG Version: 6.00 Build 0)  -->
<svg version="1.1" id="Layer_1" xmlns="http://www.w3.org/2000/svg" xmlns:xlink="http://www.w3.org/1999/xlink" x="0px" y="0px"
	 viewBox="0 0 8 8" style="enable-background:new 0 0 8 8;" xml:space="preserve">
<style type="text/css">
	.st0{fill:#F4C9D7;}
	.st1{fill:#DDA783;}
	.st2{fill:#D199AE;}
	.st3{fill:#99CBDF;}
	.st4{fill:#7DBAA7;}
	.st5{fill:#2FABE1;}
	.st6{fill:#67C3E8;}
	.st7{fill:#007AA4;}
	.st8{fill:#FFFFFF;}
	.st9{display:none;fill:#007AA4;}
	.st10{fill:#E7F4F5;}
	.st11{fill:#66C4EA;}
	.st12{fill:#EEEEEF;}
	.st13{fill:#676767;}
	.st14{fill:#EA9C32;}
	.st15{fill:#F1C066;}
</style>
<g id="New_Symbol_8">
</g>
<g id="New_Symbol_14">
</g>
<g id="expand">
</g>
<g id="star">
	<g>
		<g>
			<path class="st14" d="M7.6,3.4L6.1,4.8l0.4,2.1c0,0.1,0,0.3-0.2,0.4C6.2,7.3,6.1,7.4,6,7.4c-0.1,0-0.1,0-0.2,0L4,6.3l-1.9,1
				C2,7.4,1.8,7.4,1.7,7.3C1.6,7.2,1.5,7,1.6,6.9l0.4-2.1L0.4,3.4C0.3,3.3,0.3,3.1,0.3,2.9c0-0.1,0.2-0.2,0.3-0.3l2.1-0.3l0.9-1.9
				C3.7,0.4,3.8,0.3,4,0.3c0.2,0,0.3,0.1,0.4,0.2l0.9,1.9l2.1,0.3c0.1,0,0.3,0.1,0.3,0.3C7.7,3.1,7.7,3.3,7.6,3.4z"/>
		</g>
	</g>
	<g>
		<g>
			<path class="st15" d="M7.6,3.4L6.1,4.8l0.4,2.1c0,0.1,0,0.3-0.2,0.4C6.2,7.3,6.1,7.4,6,7.4c-0.1,0-0.1,0-0.2,0L4,6.3l-1.9,1
				C2,7.4,1.8,7.4,1.7,7.3C1.6,7.2,1.5,7,1.6,6.9l0.4-2.1L0.4,3.4C0.3,3.3,0.3,3.1,0.3,2.9c0-0.1,0.2-0.2,0.3-0.3l2.1-0.3l0.9-1.9
				C3.7,0.4,3.8,0.3,4,0.3c0.2,0,0.3,0.1,0.4,0.2l0.9,1.9l2.1,0.3c0.1,0,0.3,0.1,0.3,0.3C7.7,3.1,7.7,3.3,7.6,3.4z"/>
		</g>
	</g>
</g>
</svg>
