<?xml version="1.0" encoding="utf-8"?>
<!-- Generator: Adobe Illustrator 19.2.0, SVG Export Plug-In . SVG Version: 6.00 Build 0)  -->
<svg version="1.1" id="Layer_1" xmlns="http://www.w3.org/2000/svg" xmlns:xlink="http://www.w3.org/1999/xlink" x="0px" y="0px"
	 viewBox="0 0 8.5 12.1" style="enable-background:new 0 0 8.5 12.1;" xml:space="preserve">
<style type="text/css">
	.st0{fill:#FFFFFF;}
</style>
<g>
	<path class="st0" d="M6.5,6.7c0.1-0.6,0.1-1.2,0.1-1.9c0-1.1-0.2-2-0.5-2.7C5,2.7,3.5,2.7,2.3,2.2C2.1,2.9,1.9,3.8,1.9,4.9
		c0,0.7,0,1.3,0.1,1.9c0,0.2-0.1,0.3-0.3,0.4L0.3,7.9C0.1,8,0,8.2,0,8.3l0,3.2c0,0.2,0.4,0.3,0.6,0.2l1.8-0.9
		c0.2-0.1,0.3-0.2,0.3-0.4V9.6c0-0.2,0.3-0.2,0.5-0.1c0.3,0.2,0.6,0.3,1.1,0.3c0.4,0,0.8-0.1,1.1-0.3c0.2-0.1,0.5,0,0.5,0.1v0.8
		c0,0.2,0.1,0.3,0.3,0.4l1.8,0.9c0.3,0.1,0.6,0,0.6-0.2V8.3c0-0.2-0.1-0.3-0.3-0.4L6.8,7.2C6.6,7.1,6.5,6.9,6.5,6.7z M5.1,6.9
		C5.1,7.5,4.7,8,4.2,8C3.8,8,3.4,7.5,3.4,6.9c0-0.6,0.4-1.1,0.9-1.1C4.7,5.8,5.1,6.3,5.1,6.9z"/>
	<path class="st0" d="M2.7,1.4c0.9,0.5,2.1,0.5,3,0C5,0.3,4.2,0,4.2,0S3.4,0.3,2.7,1.4z"/>
</g>
</svg>
